<svg version="1.1" id="グループ化_776" xmlns="http://www.w3.org/2000/svg" x="0" y="0" viewBox="0 0 206 36.8" xml:space="preserve"><style>.st0{fill:black}</style><g id="グループ化_775"><path id="パス_324" class="st0" d="M206 12.7l-1.3 6.4-3.4 10H199l.7-10 1.3-6.4h5z"/><path id="パス_325" class="st0" d="M202.4 31.1l-1.1 5.1h-5.2l1-5 5.3-.1z"/><path id="パス_326" class="st0" d="M198.6 12.7l-1.3 6.4-3.4 10h-2.3l.7-10 1.3-6.4h5z"/><path id="パス_327" class="st0" d="M194.9 31.1l-1.1 5.1h-5.2l1-5 5.3-.1z"/><path id="パス_328" class="st0" d="M191.1 12.7l-1.3 6.4-3.4 10h-2.3l.7-10 1.3-6.4h5z"/><path id="パス_329" class="st0" d="M187.5 31.1l-1.1 5.1h-5.2l1-5 5.3-.1z"/><path id="パス_330" class="st0" d="M178.3 17.7c1.2.9 1.9 2.4 1.8 3.9 0 1.4-.4 2.8-1.3 3.9-.9 1-2.2 1.8-3.6 2.1l3.9 8.5h-5.2l-3.2-7.9h-1.9l-1.4 7.9h-4.5l3.6-19.7h6.7c1.8-.2 3.6.3 5.1 1.3zm-2.9 4.5c.1-.7-.3-1.3-.9-1.7-.7-.3-1.5-.5-2.3-.5h-2l-.9 4.6h2.1c1 .1 2-.2 2.9-.6.7-.3 1.1-1 1.1-1.8z"/><path id="パス_331" class="st0" d="M162.7 16.3l-.7 4h-8.2l-.7 3.8h7.8l-.7 3.7h-7.8l-.8 4.2h9l-.7 4h-13.4l3.6-19.7h12.6z"/><path id="パス_332" class="st0" d="M130.4 27.1h-.2l4.5-2.1 1.1-.5 2.7-1.3 1.9-.9.9-.4 4.1-1.9-.4 2.4v.2l-.1.6-2.1 11.1-.1.4c-2.7 1.3-5.6 2.1-8.6 2.1-1.6 0-3.1-.2-4.6-.7a9.4 9.4 0 0 1-3.5-2c-1-.9-1.8-2-2.3-3.2-.6-1.3-.8-2.8-.8-4.2 0-1.9.3-3.9 1.1-5.7.7-1.7 1.6-3.3 2.9-4.6 1.3-1.3 2.8-2.4 4.4-3.1 1.7-.8 3.6-1.1 5.5-1.1 1.5 0 2.9.2 4.4.6h4.8l-5.7 5.3c-.2-.1-.4-.3-.6-.4-.9-.5-1.9-.7-2.9-.6-1.1 0-2.2.2-3.2.7-1 .5-1.8 1.1-2.6 2-.7.8-1.3 1.8-1.7 2.9-.4 1.1-.6 2.3-.6 3.5 0 .6.1 1.2.2 1.8.1.2.1.4.2.6.2.7.7 1.4 1.2 1.9.5.6 1.2 1 1.9 1.3.8.3 1.7.5 2.6.4.6 0 1.2-.1 1.8-.2.5-.1 1.1-.3 1.6-.5l.7-4.2-8.5-.2z"/><path id="パス_333" class="st0" d="M125.7 12.7l-3.7 3.7-3.5 19.7h-6.1L106 20.6h-.1l-2.7 15.5h-5.4l4.1-23.4h9.8l-2.6 2.6 5.4 12.9h.1l2.7-15.5h8.4z"/><path id="パス_334" class="st0" d="M92 15.7l3.9 20.4h-5.8l-.8-4.7h-9l-2.8 4.7h-6.3l14.9-23.4h9l-3.1 3zM88.7 27l-1.2-8.3-4.9 8.3h6.1z"/><path id="パス_335" class="st0" d="M68.3 19.2c0-.7-.3-1.3-.9-1.6-.7-.3-1.5-.5-2.2-.5h-3l-.9 5h3.4c.4 0 .8 0 1.2-.1.4-.1.8-.2 1.2-.5.8-.5 1.3-1.3 1.2-2.3zm-.8 9.3c0-.7-.3-1.4-.9-1.8-.7-.5-1.6-.7-2.4-.6h-3.6l-1 5.6h3.2c.6 0 1.2 0 1.8-.2.5-.1 1-.3 1.5-.5.4-.2.8-.6 1-1 .3-.5.4-1 .4-1.5zm9.4-15.8l-3.4 3.4c.2.6.3 1.1.3 1.7.1 1.4-.4 2.8-1.4 3.9-1 1-2.2 1.8-3.6 2.1v.1c1.2.2 2.2.7 3 1.6.8.9 1.3 2.2 1.2 3.4.1 2.2-1 4.2-2.8 5.4-1 .6-2 1.1-3.2 1.4-1.3.3-2.7.5-4 .5h-9.3l4.1-23.4 19.1-.1z"/></g><path id="パス_336" class="st0" d="M45.8 4.7l1.3 17.8-16.2 2-1.5 2 5.7.3-4.1 4 6.3 4.5-13-3.4 2.7-2.8-6.8-.5 1.9-3.1L0 28.3 3.6 0l42.2 4.7z"/></svg>