<svg xmlns="http://www.w3.org/2000/svg" width="113" height="56" viewBox="0 0 125 62" preserveAspectRatio="xMinYMid"><defs><clipPath id="a"><path data-name="長方形 308" transform="translate(0 -8.66)" d="M0 0h125v62H0z"/></clipPath></defs><g data-name="グループ化 785" transform="translate(0 8.66)" clip-path="url(#a)"><path data-name="パス 339" d="M107.953 28.77a4.169 4.169 0 0 1-1.39 1.41 5.184 5.184 0 0 1-1.87.73 9.092 9.092 0 0 1-1.96.21h-5.37l1.37-7.93h4.78a7.431 7.431 0 0 1 3.57.77 2.743 2.743 0 0 1 1.42 2.61 4.1 4.1 0 0 1-.55 2.2zm-1.42 14.87a4.415 4.415 0 0 1-1.63 1.58 7.846 7.846 0 0 1-2.33.84 13.913 13.913 0 0 1-2.79.26h-5.1l1.53-8.88h5.67a6.483 6.483 0 0 1 3.89 1 3.22 3.22 0 0 1 1.37 2.78 4.649 4.649 0 0 1-.61 2.42zm-14.85-27.5l-6.57 37.21h14.82a26.422 26.422 0 0 0 6.41-.73 15.526 15.526 0 0 0 5.05-2.18 10.318 10.318 0 0 0 3.28-3.59 10.2 10.2 0 0 0 1.18-4.99 7.655 7.655 0 0 0-1.91-5.39 8.045 8.045 0 0 0-4.75-2.55v-.1a11.351 11.351 0 0 0 5.72-3.31 8.849 8.849 0 0 0 2.2-6.21 7.905 7.905 0 0 0-.46-2.76l5.38-5.39h-30.35zM14.921-8.741l-5.66 44.92 35.09-4.33-2.99 4.85 10.71.73L47.8 41.8l20.63 5.43-10.04-7.07 6.59-6.29-9.06-.5 2.41-3.23 25.76-3.18-2.06-28.31z" fill="#444"/></g></svg>