<svg xmlns="http://www.w3.org/2000/svg" viewBox="0 0 125.9 120"><path d="M125.9 51.1C125.9 22.9 97.7 0 63 0S0 22.9 0 51.1c0 25.3 22.4 46.4 52.7 50.4 2.1.4 4.9 1.3 5.6 3.1.6 1.6.4 4.1.2 5.7 0 0-.7 4.4-.9 5.4-.3 1.6-1.3 6.2 5.5 3.4 6.7-2.8 36.3-21.3 49.5-36.6 9-10 13.4-20.1 13.3-31.4zm-85.1 15c0 .7-.5 1.2-1.2 1.2H21.8c-.3 0-.6-.1-.8-.3-.2-.2-.3-.5-.3-.8V38.7c0-.7.5-1.2 1.2-1.2h4.4c.7 0 1.2.6 1.2 1.2v21.8h12c.7 0 1.2.6 1.2 1.2v4.4zm10.6.1c0 .7-.5 1.2-1.2 1.2h-4.4c-.7 0-1.2-.5-1.2-1.2V38.7c0-.7.6-1.2 1.2-1.2h4.4c.7 0 1.2.5 1.2 1.2v27.5zm30.3-.3c0 .7-.6 1.2-1.2 1.2h-5.1l-.3-.3-12.6-17v16.3c0 .7-.6 1.2-1.2 1.2h-4.4c-.7 0-1.2-.5-1.2-1.2V39c0-.7.5-1.2 1.2-1.2h5.4l.1.1.1.1 12.6 17V38.7c0-.7.6-1.2 1.2-1.2h4.3c.7 0 1.2.5 1.2 1.2v27.2zm24.5-22.8c0 .7-.6 1.2-1.2 1.2H93V49h12c.7 0 1.2.5 1.2 1.2v4.4c0 .7-.6 1.2-1.2 1.2H93v4.6h12c.7 0 1.2.6 1.2 1.2V66c0 .7-.6 1.2-1.2 1.2H87.3c-.3 0-.6-.1-.8-.3-.2-.2-.3-.5-.3-.8V38.7c0-.3.1-.6.3-.8.2-.2.5-.3.8-.3H105c.7 0 1.2.5 1.2 1.2v4.3z" fill="#fff"/></svg>