<svg xmlns="http://www.w3.org/2000/svg" viewBox="0 0 12.188 9.75"><path data-name="パス 55" d="M12.125 1a1.307 1.307 0 0 1-.25.375 4.773 4.773 0 0 1-.563.563 1.657 1.657 0 0 1-.375.313c-.062 0-.062.063-.062.125v.375c0 .313-.063.625-.063.937a8.325 8.325 0 0 1-.312 1.188 6.773 6.773 0 0 1-.5 1.188c-.25.375-.5.813-.75 1.125-.125.125-.25.313-.375.438-.25.25-.562.5-.812.75a4.2 4.2 0 0 1-.687.438 4.511 4.511 0 0 1-1.25.563 9.137 9.137 0 0 1-1.25.313 1.73 1.73 0 0 0-.562.062H3.5a6.8 6.8 0 0 1-1.625-.25A5.305 5.305 0 0 1 .5 8.94c-.125-.062-.313-.187-.437-.25A.061.061 0 0 1 0 8.627h.813a1.73 1.73 0 0 0 .563-.062 5.188 5.188 0 0 0 1.312-.375 7.441 7.441 0 0 0 .938-.563.376.376 0 0 1-.25-.062 2.619 2.619 0 0 1-1.5-.812 2.245 2.245 0 0 1-.437-.625.23.23 0 0 1-.062-.187c0-.063 0-.125.063-.063.125 0 .25.063.375.063a1.73 1.73 0 0 0 .563-.063.477.477 0 0 1-.312-.125c-.125-.062-.187-.125-.312-.125-.125-.062-.187-.125-.312-.187a2.8 2.8 0 0 1-.688-.812 2.034 2.034 0 0 1-.25-.875v-.313a.061.061 0 0 1 .063-.062 2.034 2.034 0 0 0 .875.25h.125c-.125-.063-.187-.188-.312-.25a2.245 2.245 0 0 1-.438-.625 2.034 2.034 0 0 1-.25-.875A2.006 2.006 0 0 1 .692.816L.88.441c.063-.063.063-.063.125 0 .125.125.188.25.313.375a3.276 3.276 0 0 0 .688.625 8.143 8.143 0 0 0 .938.625 5.933 5.933 0 0 0 1.312.563 9.137 9.137 0 0 0 1.25.313c.125 0 .313.063.438.063.062 0 .062 0 .062-.062a.376.376 0 0 0-.062-.25V2.25c0-.125.062-.312.062-.438a1.967 1.967 0 0 1 .5-.937 2.384 2.384 0 0 1 .875-.687 1.986 1.986 0 0 1 .563-.187h.937a1.177 1.177 0 0 1 .5.125 2.581 2.581 0 0 1 .687.438l.125.125a.087.087 0 0 0 .125 0 5.5 5.5 0 0 0 .938-.312c.188-.062.375-.187.563-.25h.063V.19a3.047 3.047 0 0 1-.188.438 3.435 3.435 0 0 1-.437.563 1.1 1.1 0 0 1-.312.25c.188-.062.375-.062.563-.125a3.047 3.047 0 0 0 .687-.25C12.063 1 12.125 1 12.125 1z" fill="#fff" fill-rule="evenodd"/></svg>